<?xml version="1.0" encoding="UTF-8"?>
<svg width="1200pt" height="1200pt" version="1.1" viewBox="0 0 1200 1200" xmlns="http://www.w3.org/2000/svg">
 <path d="m1100.4 595.5-158.39-205.2-594.61 4.7891 30-69.602h-40.188l-6.6133 62.398-216.59 261.61 33 19.199 27.59-57.602 112.2 29.398 92.41-61.199 196.8 144.6 40.199 150h51.59v-106.8h336v106.8h62.41v-175.8zm1.2031 107.4v207h-199.2v-106.8l-199.19 0.003906v106.8h-114.61l-38.387-147.6-142.8 130.79-46.801-105 79.801-120-61.801-45.602-85.199 56.398-99-25.801-33 64.801-101.4-58.188 237-286.79 9-82.801h125.39l-30 69 557.39-4.7891 181.23 234.58zm-174.59-283.2v36h-40.223v-36zm-63.613 36-168-1.7891 0.61328-36 168 1.7891zm75 347.4v70.801h29.387v-70.801zm-618.61-337.8v17.387h18.613v31.211h-48.613v-48.602zm208.81 268.2-60-44.398-67.199 102 18.613 42z" fill-rule="evenodd"/>
</svg>
